<?xml version="1.0" encoding="UTF-8"?> <!-- Generator: Adobe Illustrator 24.1.2, SVG Export Plug-In . SVG Version: 6.00 Build 0) --> <svg xmlns="http://www.w3.org/2000/svg" xmlns:xlink="http://www.w3.org/1999/xlink" version="1.1" id="Layer_1" x="0px" y="0px" viewBox="0 0 600 400" style="enable-background:new 0 0 600 400;" xml:space="preserve"> <style type="text/css"> .st0{fill:#E6F0FF;} .st1{fill:#1381BC;} .st2{fill:#02125F;} .st3{fill:#F8FBFF;} .st4{fill:#003A51;} .st5{opacity:0.6;fill:#1381BC;} .st6{fill:#FF5C4F;} .st7{fill:#F7BA61;} .st8{fill:#30CCBD;} .st9{fill:#FCB2A9;} .st10{fill:#10181B;} .st11{fill:#D9DFF4;} .st12{fill:#FF7A39;} .st13{fill:#E7EAF7;} .st14{fill:#F29B7C;} .st15{fill:#A279F2;} .st16{fill:#FFAA00;} .st17{fill:#2CD9D9;} .st18{fill:#FFFFFF;} </style> <g id="Problem_Solving_2_"> <g id="Background_38_"> <path class="st0" d="M469.1,159.3c0-24.2-32.9-53-70.1-53c-0.7,0-39.9-0.6-39.9,24.4c0,19.9,23.3,54.2,71.6,54.2 C453,184.9,469.1,176.2,469.1,159.3z"></path> <path class="st0" d="M135.2,386.4c0,0-62.1-73.9-62.1-146c0-77.5,76.5-122.6,156.2-122.6c52.4,0,106.3,18.7,142,55.8 c89.5,93,217.7,35.6,217.7,145c0,36.5-19.9,67.1-19.9,67.1L135.2,386.4z"></path> </g> <g id="Floral_33_"> <g> <path class="st1" d="M54.9,376.7c0,3.7-10.5,6.7-15.5,6.7c-2.1,0-2.7-0.5-2.7-1c0-2.4,9.7-8,14.9-8 C52.6,374.3,54.9,374.6,54.9,376.7z"></path> <path class="st1" d="M51.5,367.4c0,3.2-9,5.8-13.3,5.8c-1.8,0-2.2-0.4-2.2-0.9c0-2.1,8.3-6.9,12.8-6.9 C50.9,365.4,51.5,366.5,51.5,367.4z"></path> <path class="st1" d="M21.1,365.3c0,3.4,9.8,7.3,13.4,7.3c1.3,0,1.4-0.5,1.4-0.7c0-2.3-8.2-8.4-12.4-8.4 C21.2,363.4,21.1,365.3,21.1,365.3z"></path> <path class="st1" d="M51.3,359.5c0,2.7-7.5,4.6-11.6,4.6c-2.7,0-2.7-0.8-2.7-0.9c0-1.8,7.4-5.6,11.5-5.6 C51.3,357.6,51.3,359.4,51.3,359.5z"></path> <path class="st1" d="M26.5,353.9c0,3.4,8,9.7,10.3,9.7c0.1,0,0.7,0.1,0.7-0.8c0-2.6-5.9-10.6-9.2-10.6 C27.4,352.2,26.5,352.8,26.5,353.9z"></path> <path class="st1" d="M51,353.2c-3.9,0-9.2-1.5-9.2-2.7c0-1,3.3-1.8,6.8-1.8c3.3,0,6.4,0.7,6.4,2.6 C55.1,352.7,53.2,353.2,51,353.2z"></path> <path class="st1" d="M34.9,340.3c0,3.3,5.4,10.1,7.1,10.1c0,0,0.6,0.1,0.6-1.2c0-3-3.4-10.6-6.2-10.6 C36.2,338.6,34.9,338.7,34.9,340.3z"></path> <path class="st1" d="M56,345.1c-3.2,0-8-1.6-8-2.7c0-0.6,1.7-1.2,4.6-1.2c2.9,0,6.2,0.7,6.2,2.4C58.9,345.3,56.2,345.1,56,345.1z "></path> <path class="st1" d="M44.1,333.7c0,3,3.2,8.6,4.4,8.6c0.6,0,0.7-1.5,0.7-1.8c0-3-1.6-8.5-3.7-8.5 C44.3,331.9,44.1,333.1,44.1,333.7z"></path> <path class="st1" d="M62.5,338.4c-2.4,0-6.6-1.8-6.6-2.7c0-0.4,0.8-0.7,2.4-0.7c2.5,0,5.9,0.8,5.9,2.3 C64.3,337.9,63.8,338.4,62.5,338.4z"></path> <path class="st1" d="M54.3,329.8c0,2.4,0.8,5.5,1.5,5.5s1.3-2.5,1.3-4.8c0-1.9-0.4-3.6-1.5-3.6S54.3,328.7,54.3,329.8z"></path> <path class="st1" d="M17.7,378.8c0,3.3,8.2,5,13.7,5c5,0,5.1-1.2,5.1-1.4c0-2.2-9.1-6.2-14.6-6.2 C18.9,376.3,17.7,377.4,17.7,378.8z"></path> <path class="st2" d="M37.2,385.4c0-0.1-1.5-4.8-1.5-11.7c0-25.1,18.6-37.4,22.1-39.7l0.3,0.4c-3.4,2.3-21.9,14.4-21.9,39.3 c0,6.8,1.4,11.5,1.4,11.6L37.2,385.4z"></path> </g> <g> <path class="st3" d="M201.4,386.4c0,0-14.6-10.3-14.6-20.3s12.1-13.2,12.1-24.9s-7.2-15.3-7.2-26s12.2-12.1,12.2-22.5 c0-10.3,3.6-24.2,9.6-24.2c2,0,2.5,1.9,2.5,4.7c0,2.1-0.3,4.8-0.3,7.6c0,14.5,7.3,12,7.3,20.1c0,6.5-6.2,13.5-6.2,20.8 c0,10,13.8,11.4,13.8,25.7c0,11-6.6,21-6.6,30.8c0,2.8,0.6,5.6,2,8.4h-24.6V386.4z"></path> <path class="st1" d="M209.8,386.5c-3-4.2-4.1-8.6-4.1-12.8c0-11.7,8.6-23.1,8.6-30.4c0-8.3-8.9-16.7-8.9-25.1 c0-6.3,4.3-5.7,4.3-19.7c0-2.5-0.1-5.2-0.1-8c0-4.2,0.2-8.8,1.4-13.9l0.2,0.1c-1.2,5.1-1.4,9.7-1.4,13.9c0,2.7,0.1,5.5,0.1,8 c0,13.9-4.2,13.5-4.2,19.6c0,8.4,8.9,16.7,8.9,25.1c0,7.5-8.6,18.8-8.6,30.4c0,4.2,1.1,8.4,4.2,12.7L209.8,386.5z"></path> </g> <g> <path class="st3" d="M253.9,386.4c0,0-19.9-14.1-19.9-27.7s16.5-18,16.5-34s-9.8-20.9-9.8-35.5s16.6-16.5,16.6-30.6 s4.9-33,13.1-33c2.8,0,3.3,2.5,3.3,6.3c0,2.9-0.3,6.5-0.3,10.3c0,19.7,10,16.4,10,27.4c0,8.9-8.5,18.3-8.5,28.3 c0,13.6,18.8,15.5,18.8,35c0,15.1-9,28.7-9,41.9c0,3.9,0.8,7.7,2.7,11.5h-33.5V386.4z"></path> <path class="st1" d="M265.4,386.5c-3.8-5.3-5.7-11-5.7-17.4c0-15.8,11.7-31.5,11.7-41.4c0-11.4-12.2-22.7-12.2-34.2 c0-8.6,5.8-7.7,5.8-26.8c0-3.3-0.1-7.1-0.1-10.8c0-5.7,0.3-12,1.9-19l0.2,0.1c-1.6,7-1.9,13.2-1.9,18.9c0,3.7,0.1,7.5,0.1,10.9 c0,19-5.8,18.4-5.8,26.8c0,11.4,12.2,22.8,12.2,34.2c0,10.1-11.7,25.7-11.7,41.4c0,6.3,1.9,12,5.6,17.3H265.4z"></path> </g> <g> <path class="st4" d="M555.3,385.5c0,0-16.5-13.1-16.5-29c0-10.3,5-13.8,7.3-13.8c5.1,0,3.7,11.8,4.9,21.4 c1.7,13.9,7.3,21.4,7.3,21.4H555.3z"></path> <path class="st4" d="M560.4,385.5c0,0-3.1-6-3.1-13.9c0-7.5,3.8-15.4,8.8-15.4c2.2,0,3,1.6,3,3.8c0,3.3-1.7,8-3.3,10.9 c-2.4,4.6-2.6,14.7-2.6,14.7h-2.8V385.5z"></path> <path class="st4" d="M553.5,385.5c0,0-8.4-3-10.9-8.9c-2.2-5.1-5.1-12.1-8.8-12.1c-2,0-4.7,2.2-4.7,6c0,9.2,13,14.9,19.9,14.9 c0.1,0,0.2,0,0.3,0h4.2V385.5z"></path> <path class="st1" d="M556.5,385.6c-12.9-14.3-12.5-29.7-12.5-31.5c0-2.7,0.2-4.4,0.2-4.4h0.2c0,0-0.2,1.7-0.2,4.4 c0,15.8,8.8,27.4,12.4,31.3L556.5,385.6z"></path> <path class="st1" d="M561.5,385.5c-1-3-1.4-6-1.4-8.7c0-9.4,4.7-16.3,4.7-16.4l0.2,0.1c-0.1,0.1-4.7,6.9-4.7,16.2 c0,2.7,0.4,5.6,1.4,8.6L561.5,385.5z"></path> <path class="st1" d="M549.7,385.6c-0.1,0-12.6-1.8-16.9-15.9l0.2-0.1c4.3,13.9,16.6,15.7,16.7,15.7V385.6z"></path> </g> </g> <g id="Board_11_"> <path class="st3" d="M546,304.3c-0.1,0-0.3,0-0.4,0l-152.8-27c-2-0.3-3.5-2.2-3.5-4.2V159.7l159.9-18.1v158.3 C549.1,302.5,547.7,304.3,546,304.3z"></path> <path class="st2" d="M546,304.6c-0.2,0-0.3,0-0.5,0l-152.8-27c-2.1-0.4-3.8-2.3-3.8-4.4V159.7h0.5v113.4c0,1.8,1.5,3.6,3.3,3.9 l152.8,27c0.1,0,0.3,0,0.4,0c2,0,2.8-2.4,2.8-4.1V141.6h0.5v158.3C549.3,302.5,547.9,304.6,546,304.6z"></path> <path class="st5" d="M525.1,281.5c-0.1,0-0.1,0-0.2,0l-119.5-16.9c-1.2-0.2-2.2-1.5-2.2-2.9v-64.2c0-1.4,1-2.6,2.2-2.7l7.7-0.2 c1.2,0,2.2-1.3,2.2-2.7v-8.8c0-1.5,1-2.8,2.2-2.8l94.1-5.5h0.1c1.2,0,2.1,1.4,2.1,3.2v75.4c0,1.8-0.9,3.1-2.1,3.1h-0.1l-94.1-9.1 c-1.2-0.1-2.2-1.4-2.2-2.9v-31.8c0-1.5,1-2.7,2.2-2.7l0,0l14.7,0.2c1.2,0,2.2,1.3,2.2,2.8v14.1c0,1.6,1,2.9,2.2,2.9l59.7,3.3h0.1 c1.2,0,2.1-1.4,2.1-3.1v-28c0-1.8-1-3.2-2.2-3.2l0,0l-48.4,0.6c-1.2,0-2.2,1.3-2.2,2.9V217c0,1.6-1,2.8-2.1,2.8c0,0,0,0-0.1,0 c-1.2,0-2.2-1.3-2.2-2.9v-20.1c0-1.6,1-2.9,2.2-2.9l57.2-1.4l0,0c1.2,0,2.2,1.4,2.2,3.2v41.2c0,1.7-0.9,3.1-2.1,3.1h-0.1 l-68.6-4.6c-1.2-0.1-2.2-1.4-2.2-2.9v-14c0-1.5-1-2.8-2.2-2.8l-5.8-0.1l0,0c-1.2,0-2.2,1.2-2.2,2.7v21.3c0,1.5,1,2.8,2.2,2.9 l85.3,7.2h0.1c1.2,0,2.1-1.4,2.1-3.1v-61.7c0-1.8-0.9-3.2-2.1-3.2c0,0,0,0-0.1,0l-85.3,3.9c-1.2,0.1-2.2,1.3-2.2,2.8v8.9 c0,1.5-1,2.7-2.2,2.7l-7.7,0.1c-1.2,0-2.2,1.2-2.2,2.7V257c0,1.5,1,2.8,2.2,2.9l110.7,14.2c0.1,0,0.1,0,0.2,0c1.1,0,2-1.3,2-3.1 V166.8c0-1.8-0.9-3.2-2.1-3.2h-0.1l-112.9,8.8h-0.1c-1.1,0-2.1-1.1-2.1-2.5c0-1.5,1-2.7,2.2-2.8l117.3-10.6h0.1 c1.2,0,2.1,1.4,2.1,3.2v118.7C527.1,280.2,526.2,281.5,525.1,281.5z"></path> <path class="st4" d="M462.7,207.5c-3.8,0-6.8,3.6-6.8,8c0,3.2,2.3,8.3,7.1,8.3c2.1,0,3.9-1.1,5.2-2.9l14.7,2.7 c0.2,0.1,0.5,0.1,0.7,0.1c1.4,0,2.5-1.3,2.5-3.1v-8.7c0-1.8-1.2-3.2-2.6-3.2c-0.2,0-0.4,0-0.6,0.1l-14.7,2 C468,210.5,466.2,207.5,462.7,207.5z"></path> <path class="st4" d="M545.9,122.6c-0.1,0-0.3,0-0.4,0l-152.8,22.6c-2,0.3-3.5,2.1-3.5,4.1v10.5l159.9-18.1V127 C549.1,124.5,547.7,122.6,545.9,122.6z"></path> <path class="st6" d="M397.6,148.2c1.7,0,2.9,1.3,2.9,3.1c0,1.6-1.3,3.9-3.8,3.9c-1.7,0-3-1.3-3-3.1 C393.7,150.6,395.1,148.2,397.6,148.2z"></path> <path class="st7" d="M408.7,146.6c1.7,0,3,1.3,3,3.2c0,2.1-1.8,4-3.8,4c-1.7,0-3-1.3-3-3.2C404.9,149.1,406.2,146.6,408.7,146.6z"></path> <path class="st8" d="M419.9,145.1c1.7,0,3,1.4,3,3.3c0,2.2-1.7,4.1-3.8,4.1c-1.7,0-3-1.4-3-3.2C416,147,417.9,145.1,419.9,145.1z"></path> </g> <g id="Man_35_"> <g> <g> <g> <path class="st4" d="M408.8,363.7c2.3,2.1,8.9,2.8,13.7,2.8c3,0,4.2-0.2,4.4-0.2c0.6,0,1,0.5,1,1.1v2l-23.7,8.8 c-0.2,0.1-0.3,0.1-0.5,0.1c-0.5,0-1-0.3-1.2-0.9l-1.7-9.7L408.8,363.7z"></path> <polygon class="st9" points="399.2,363.9 400.9,367.7 408.8,363.7 408,361.1 "></polygon> <path class="st4" d="M354.6,371.9c0.8,4.3,10.4,8.6,13.5,10.3c0.3,0.2,0.5,1,0.5,1.7c0,0.5-0.1,0.9-0.2,1.1l-1.8,0.3 c-0.2,0-0.4,0-0.7,0c-0.2,0-0.4,0-0.6,0l-20.2-2.5c-0.6-0.2-0.8-0.7-0.8-1.4c0-0.1,0-0.1,0-0.2l2.1-10.9L354.6,371.9z"></path> <path class="st9" d="M403.3,229.4l-1.2-8c-0.3-1.8-0.9-3.4-2-4.9l-1.7-2.4c-1-1.4-2.3-2.6-3.9-3.4l-0.6-0.3 c-0.2-0.1-0.3-0.1-0.5-0.1c-0.5,0-1,0.3-1.1,0.9l-0.1,0.3c0,0.1,0,0.3,0,0.4c0,0.4,0.1,0.8,0.3,1.1l3,4.6c0,0-1.7,1.2-1.7,2.5 c0,0.2,0,0.4,0.1,0.6l0.1,0.5c-1.5,0.1-1.7,1.4-1.7,2.1c0,0.2,0,0.3,0,0.3s-0.8,0.7-0.8,1.8c0,0.3,0,0.5,0.2,0.8l1.2,2.2 L403.3,229.4z"></path> <polygon class="st9" points="355.1,369.3 354.6,371.9 346.5,370.3 346.5,367.7 "></polygon> <path class="st4" d="M353.3,269.8c0,0-4.1,34.5-5.8,53.3c-1.7,18.8-5.4,44.6-5.4,44.6l17.1,2.4l15.1-76.1c0,0,6.2,16.3,10.6,34 c2.6,10.5,10.2,37.9,11.1,37.9c0.1,0,0.1,0,0.2,0l16.2-5.6c0.2-0.1,0.4-0.3,0.4-0.5v-0.1l-25-89.8L353.3,269.8L353.3,269.8z"></path> <path class="st1" d="M378.1,220.7C378.2,220.7,378.2,220.7,378.1,220.7c6.2,0,15.6,10.8,15.6,10.8l-0.9-3.4l13.2,1.5 c0,0,2.9,12.2,2.9,21.3c0,5.5-1,9.8-4.3,9.8h-0.1c-0.9,0.2-1.8,0.3-2.7,0.3c-8.2,0-13.6-9.2-13.6-9.2L378.1,220.7z"></path> <g> <path class="st10" d="M366,208.4c0.9,1.1,1,2,1,2.5c0,0.2,0,0.3,0,0.3v-2.4L366,208.4z"></path> <path class="st9" d="M380.1,200.4c-0.3-2-2.2-5.8-6.7-5.8c-4.6,0-6.5,4-6.7,6.1l0,0c0,0.2,0,0.5,0,0.7c0,0.4,0,0.8,0.1,1.1v1 l0,0c-1.2,0-2.5,0.9-2.5,2.5c0,0.5,0.1,1,0.4,1.4c1,1.5,2.3,0.8,2.4,2.1l0.3,9.1c0,0,4.6,4.8,6,4.8c1.5,0,5-2.1,5-2.1 l-0.5-6.6c2.1-0.1,3.8-1.9,3.8-4c0-0.2,0-0.4,0-0.5l-1.2-9.4v-0.1L380.1,200.4z"></path> <path class="st4" d="M364.6,204.6c0,0-2.4-5.7-2.4-9.1c0-0.5-0.3-3.2,4.2-3.2c0.6,0,1.1,0,1.7,0c4.1,0,6.1-3.4,10.9-3.4 c3.1,0,5,2.3,5,4.8c0,3.9-3.6,9-3.6,9l-0.3-2.4c0,0-0.8-0.9-2.2-0.9c-2.1,0-2.9,2-5.7,2c-0.4,0-0.6,0-0.7,0 c-0.3,0-0.5,0.2-0.5,0.5l0,0v0.6l0,0c0,1-0.5,2-1.4,2.6l-0.4,0.3c0,0-0.6,2.2-0.8,2.2c-0.1,0-0.6-4.2-1.9-4.2 C365.7,203.5,364.9,204.3,364.6,204.6z"></path> </g> <path class="st1" d="M355.8,221.5l11.6-3.4c0,0,3.1,4.8,5.8,4.8c2.7,0,4.8-2.2,4.8-2.2s6.1,0.8,8.3,11.5 c1.6,7.7,1.8,24.2,1.8,32.5c0,3.1,0,5.1,0,5.1h-34.9L355.8,221.5z"></path> <path class="st1" d="M357.2,221.3c-0.9,0-1.4,0.2-1.4,0.2c-4.5,1.4-7,4.5-7,10.6c0,3,0.6,6.8,1.9,11.5 c3.8,13.7,5.1,22.7,14.4,22.7l29.3-1.5l-0.6-14.1l-23.7,0.1c0,0-3.9-16.5-5.9-22.7C362.5,222.3,359.1,221.3,357.2,221.3z"></path> <polygon class="st11" points="375.5,292 375,291.9 377.1,276.4 377.6,276.4 "></polygon> <path class="st9" d="M394,252.5c0,0,3.7-1.9,6.2-1.9c1.4,0,1.4,0.5,2,0.5c0.1,0,0.1,0,0.2,0c3.9-0.7,3.8-1.6,4.6-1.6 c0.4,0,0.8,0.2,0.9,0.6c0,0.1,0.1,0.2,0.1,0.4s-0.1,0.4-0.2,0.5l-0.5,0.7c-0.1,0.2-0.2,0.4-0.2,0.5s0,0.2,0,0.3l0.3,0.9 c0,0.1,0,0.2,0,0.3c0,0.3-0.2,0.6-0.5,0.8l-0.3,0.2c-0.3,0.2-0.5,0.5-0.5,0.8v0.1l0.2,1v0.1c0,0.3-0.2,0.7-0.5,0.8l-1,0.6 c-0.2,0.2-0.4,0.4-0.5,0.7v0.1c-0.1,0.4-0.4,0.8-0.8,0.9l-5.1,0.7h-0.1c-0.1,0-0.1,0-0.2,0l-4-0.9L394,252.5z"></path> <polygon class="st2" points="370,251.2 365,231.4 365.5,231.3 370.4,250.7 393.9,250.6 393.9,251.1 "></polygon> <path class="st2" d="M388,249.5c0-0.1-0.2-10.7-3.2-19.6l0.5-0.2c3,9,3.3,19.6,3.3,19.7L388,249.5z"></path> <rect x="394.6" y="232.6" transform="matrix(0.9948 -0.1019 0.1019 0.9948 -22.4527 41.4861)" class="st2" width="0.5" height="15.8"></rect> <path class="st2" d="M376.4,265.8c-17.9,0-19.4-3.2-21.9-8.1l0.4-0.2c2.3,4.7,3.9,7.8,21.4,7.8c4.8,0,10.7-0.2,18.1-0.7v0.5 C387.1,265.6,381.2,265.8,376.4,265.8z"></path> </g> <path class="st4" d="M377.7,214.6c0,0-1.5,0.1-2.8,0.1c-0.6,0-1.2,0-1.5-0.1l4.5,2L377.7,214.6z"></path> </g> <path class="st12" d="M397.7,220.4c-0.1,0-0.1,0-0.1-0.1c-0.8-2-1.7-2.4-1.7-2.6c0-0.1,0.1-0.1,0.1-0.1c0.5,0,1.8,2.3,1.8,2.6 C397.8,220.3,397.7,220.4,397.7,220.4z"></path> <path class="st12" d="M395.9,223.4c0,0-0.1,0-0.1-0.1l-1.4-1.9c0,0,0,0,0-0.1c0,0,0-0.1,0.1-0.1c0,0,0.1,0,0.1,0.1l1.4,1.9 c0,0,0,0,0,0.1C396,223.3,396,223.4,395.9,223.4z"></path> <path class="st12" d="M393.7,224.8c0,0-0.1,0-0.1-0.1l-0.6-0.9c0,0,0,0,0-0.1s0.1-0.1,0.1-0.1s0.1,0,0.1,0.1l0.6,0.9 c0,0,0,0,0,0.1C393.8,224.7,393.7,224.8,393.7,224.8z"></path> </g> <path class="st1" d="M378.1,219.7l-3.3,2.8c-0.1,0-0.1,0.1-0.1,0.2v0.1l1.7,2.4c0,0.1,0.1,0.1,0.2,0.1s0.2-0.1,0.2-0.2l1.5-4.5 L378.1,219.7z"></path> <path class="st1" d="M373.5,222.8v-0.1c0-0.1,0-0.1-0.1-0.2l-6.6-6.4v2.1v0.1l4.1,7.2c0,0.1,0.1,0.1,0.2,0.1s0.1,0,0.2-0.1 L373.5,222.8z"></path> <path class="st4" d="M373.5,222.8c0,0,0.3,0.4,0.7,0.4c0.4,0,0.7-0.3,0.7-0.3l1.5,2.1l-1.4,1.9l6.7,24h-6.3l-1.2-24l-2.1-2.1 L373.5,222.8z"></path> </g> <g id="Man_34_"> <g> <rect x="322.9" y="315" class="st2" width="165.9" height="3"></rect> <rect x="295.4" y="349.7" transform="matrix(0.2298 -0.9732 0.9732 0.2298 -86.8679 592.7159)" class="st2" width="71.3" height="3"></rect> <rect x="482.4" y="315.6" transform="matrix(0.9732 -0.2298 0.2298 0.9732 -67.7656 120.6021)" class="st2" width="3" height="71.3"></rect> <rect x="249.2" y="332.2" class="st2" width="46.5" height="3"></rect> <rect x="225.7" y="358.8" transform="matrix(0.1211 -0.9926 0.9926 0.1211 -135.8048 567.2025)" class="st2" width="53.4" height="3"></rect> <rect x="290.8" y="333.5" transform="matrix(0.9919 -0.1267 0.1267 0.9919 -43.2867 39.9388)" class="st2" width="3" height="53.5"></rect> <polygon class="st13" points="363.3,314.3 327.5,314.3 327.5,311.3 361.4,311.3 375.4,279.6 378.2,280.8 "></polygon> </g> <g> <polygon class="st4" points="276.4,332 259.6,350.8 274,366.4 296.6,340 290.4,330.6 "></polygon> <path class="st4" d="M249.9,312c0,0-0.2,1.7-0.2,4c0,6,1.1,16.6,8.9,16.6h24c4.3,0,7.9,3.1,8.6,7.3l3.5,30.8H314l-7.1-50.2 c-0.4-2.9-2.6-5.2-5.5-5.7L285,312H249.9z"></path> <g> <polygon class="st4" points="290.5,266.9 290,268.5 283.1,258.4 285,257.8 "></polygon> <path class="st1" d="M286.2,261.4l3.8,7l6.2,25.2c0.1,0.5,0.5,0.8,1,0.8c0.2,0,0.4-0.1,0.6-0.2l10.9-7.8l8.3,10.4l-13.9,13 c-0.1,0.1-0.3,0.2-0.5,0.2h-10.9c-1.1,0-2.1-0.4-2.9-1l-3.7-2.9v5.9H250c0,0-0.1-0.7-0.1-2c0-6.4,1.4-26.7,18.4-45.9 L286.2,261.4z"></path> <path class="st4" d="M302.3,374.9l10.9-1.4c0,0,7.3,7.7,17.7,9.3c1,0.1,1.6,1,1.6,1.9c0,0.2,0,0.4-0.1,0.6l-0.4,1.4h-31.8 L302.3,374.9z"></path> <path class="st1" d="M286.9,264.8c0-5.7-4.7-7.3-7.5-7.3c-11.7,0-25.7,27.5-25.7,36.3c0,8.7,7.9,12.1,18.6,12.1 c12.4,0,23.8-1,23.8-1l0.6-13.3H273C273,291.7,286.9,274.9,286.9,264.8z"></path> <path class="st4" d="M257.4,355l5.9,10.8c0,0-1.2,5.4-1.2,10.6c0,5,0.9,5.9,0.9,7c0,1-0.5,1.9-1.4,2.4l-1.4,0.8l-14.4-27.2 L257.4,355z"></path> <path class="st14" d="M302.3,370.8v4.1l3.2,0.5c0.5,0.1,1,0.1,1.5,0.1c1.7,0,3.3-0.4,4.8-1.2l1.4-0.8l-0.9-2.7H302.3z"></path> <path class="st14" d="M260.5,351.8l-3.1,3.3l0.2,1c0.8,3.5,2.6,6.6,5.1,9.2l0.6,0.7l4.1-6.5L260.5,351.8z"></path> <path class="st14" d="M296.6,292.7l11-1l0.3,0.8c0,0.1,0.1,0.2,0.1,0.3c0,0.3-0.2,0.6-0.5,0.7l-3.7,1.2l7.1,4.9 c0.4,0.3,0.7,0.6,1,1l2.1,2.6c0.1,0.2,0.2,0.4,0.2,0.6c0,0.4-0.2,0.8-0.6,0.9l-4.1,1.6c-0.4,0.2-0.9,0.2-1.3,0.2 c-0.5,0-0.9-0.1-1.4-0.3l-10.6-4.5L296.6,292.7z"></path> <path class="st14" d="M309.4,287.3l2.5-8.5c0.2-0.7,0.8-1.2,1.6-1.2c0.5,0,0.9,0.4,0.9,0.9c0,0,0,0,0,0.1l-0.1,1.5v0.1 c0,0.8,0.6,1.3,1.3,1.3c0.2,0,0.4,0,0.6-0.2l5.8-3c0.1-0.1,0.3-0.1,0.4-0.1h0.1l4.3,0.7c0.4,0.1,0.7,0.4,0.7,0.8v0.1l-0.3,2.3 c0,0.2-0.1,0.4-0.3,0.5l-8.3,8c-0.1,0.1-0.1,0.1-0.2,0.1L314,293L309.4,287.3z"></path> <g> <path class="st4" d="M290.7,249.5c-0.9,1.1-0.9,3.2-0.9,3.2l1.6-1.6L290.7,249.5z"></path> <path class="st14" d="M305.7,254.3c0.8-1.1,1.3-2.4,1.3-3.8c0-0.2-0.4-6.4-6.4-6.4c-1.5,0-2.9,0.5-4,1.4l0,0 c-0.4,0.4-0.8,0.8-1.2,1.2l-0.7,0.7c-0.4-0.4-1-0.7-1.7-0.7c-0.1,0-0.3,0-0.5,0c-0.4,0.1-1.9,0.6-1.9,2.4c0,1,0.5,1.2,0.5,1.8 c0,0.3-0.1,0.5-0.3,0.7l-5.9,6.3l5.5,9.1l3.6-4.2c0.1-0.2,0.3-0.2,0.5-0.2s0.3,0.1,0.5,0.2l1,0.8c0.4,0.3,0.8,0.5,1.3,0.5 c0.6,0,1.1-0.3,1.5-0.8l6.6-8.6c0,0,0-0.1,0.1-0.1L305.7,254.3z"></path> <path class="st4" d="M293,246.8c-0.4,0-0.8,0.1-1.2,0.3c0,0,5.3-8.6,8-8.6c2.4,0,2.9,3.6,7.2,4.7c3.9,1,9.1,1.3,9.1,7.8 c0,4.6-6.4,5.2-9.7,5.2c-1.2,0-2-0.1-2-0.1l1.4-1.8l0,0c0-0.3-0.1-2.5-2.9-3c-3.1-0.6-3.2-2.1-3.9-2.1c-0.1,0-0.3,0.1-0.4,0.2 l-0.4,0.4c-0.6,0.6-1.3,0.9-2.1,0.9c-0.2,0-0.4,0-0.6-0.1l-0.5-0.1c0,0-1.1,0.8-1.7,0.8c-0.3,0-0.4-0.1-0.4-0.3 c0-0.8,1.8-3.6,1.8-3.6S294,246.8,293,246.8z"></path> </g> <path class="st4" d="M294.8,262.4c0.1,0,0.2,0,0.4,0.1l-3.4-3.3l1.6,4.3C293.4,263.5,294.2,262.4,294.8,262.4z"></path> <path class="st2" d="M279.4,305.6c-10.2,0-25.9,0.1-25.9-11.7c0-2.1,0.4-4.5,1.3-7.3l0.5,0.2c-0.9,2.7-1.3,5.1-1.3,7.1 c0,9.4,9.4,11.2,25.3,11.2c4.9,0,10.3-0.2,16.3-0.4h0.1l0.6-12.8h-3.7l-21.3,1l0.3-0.4c0.1-0.1,9.8-13.6,13.5-21.3l0.4,0.2 c-3.4,7-11.6,18.6-13.3,20.9l20.3-0.9h4.2l-0.6,13.8h-0.6C289.7,305.5,284.3,305.6,279.4,305.6z"></path> <polygon class="st2" points="285.3,292.1 284.8,292 285.6,285.7 286.1,285.8 "></polygon> </g> <path class="st11" d="M292,344.8h-0.5v-5.5c0-3.6-2.9-6.5-6.5-6.5h-8v-0.5h8c3.9,0,7,3.1,7,7V344.8z"></path> </g> </g> <g id="Woman_37_"> <g> <path class="st4" d="M408.2,374.1l-11.9-0.2c0,0-6.9,7.4-16.8,8.8c-0.9,0.1-1.5,0.9-1.5,1.8c0,0.2,0,0.4,0.1,0.5l0.4,1.3h31 L408.2,374.1z"></path> <path class="st4" d="M443,261.3c-4.4,2.8-12.6,7.4-12.6,16.4c0,0.4,0,0.8,0,1.2l18.9,3.9v-23L443,261.3z"></path> <path class="st9" d="M419.3,283.6l-3.1-4.1c-0.7-0.9-1.5-1.7-2.5-2.3l-8.7-6.1c-0.2-0.1-0.3-0.2-0.5-0.2c-0.4,0-0.7,0.2-0.9,0.6 l-0.2,0.6c0,0.1,0,0.2,0,0.3c0,0.2,0.1,0.5,0.2,0.6l5.7,5.5c0.2,0.2,0.2,0.4,0.2,0.6c0,0.4-0.2,0.7-0.6,0.9l-0.4,0.2 c-0.3,0.2-0.6,0.5-0.6,0.8c0,0.1,0,0.2,0,0.3l0.2,0.6c0,0.1,0,0.2,0,0.3c0,0.4-0.2,0.7-0.6,0.9l-0.2,0.1 c-0.4,0.2-0.6,0.5-0.6,0.9c0,0.1,0,0.3,0.1,0.4l0.3,0.5c0.1,0.1,0.1,0.3,0.1,0.4c0,0.4-0.2,0.8-0.6,0.9s-0.6,0.5-0.6,0.9 c0,0.2,0,0.4,0.2,0.5l1.6,2.4c0.1,0.2,0.3,0.3,0.5,0.4l2.4,0.8L419.3,283.6z"></path> <path class="st15" d="M446.7,269.6c0,0-0.1,0-0.2,0c-0.9,0-5.2,0.4-9.3,7.5c-4.6,8-9.5,19.7-9.5,19.7l-8.1-13.7l-12.2,11.2 l14.5,20.8h10.5l8.1-4L446.7,269.6z"></path> <path class="st9" d="M454.6,263.5l-2.6-7.9c0,0,0.9-1.3,0.9-2.7c0-1.5-1.1-2.5-1.9-2.5c-0.3,0-0.6,0.1-0.8,0.3c0-0.1,0-0.1,0-0.2 c0-3.5-2.8-6.3-6.3-6.3c-5.3,0-6.3,5.2-6.3,6.3c0,0.8,0.2,1.5,0.3,1.9c0.1,0.2,0.2,0.5,0.3,0.7c1.6,4.1,4.8,9.4,6.2,9.4 c0.2,0,0.4,0,0.5-0.1l1.8-1.1v6.7L454.6,263.5z"></path> <path class="st4" d="M438.1,253c0,0,0.3,0.4,0.7,0.4c0.4,0,1-0.3,1.7-1.5c0.9-1.5,2.3-2.3,2.9-2.3c1.3,0,0.7,1.8,2.5,1.8 c0.1,0,0.1,0,0.2,0c1.7,0,2.6,2,3.4,2c0.7,0,0.6-1.4,0.6-1.4c0-0.7-0.1-1.3-0.1-1.3s0.3-0.2,0.8-0.2c1.1,0,2,1.4,2,2.6 c0,1.4-0.9,2.6-0.9,2.6s1.2,4.8,2.6,7.9c1.3,3.2,26.1,23.3,26.1,23.3h26.9c0,0,1.7-5,1.7-10.6c0-24.1-28.8-13.5-28.8-21.6 c0-1.4,0.9-2.8,0.9-4.1c0-0.8-0.5-2.1-1.9-2.1c-2.9,0-8.2,4.9-10.7,4.9c-3.4,0-3.1-14.3-14.4-14.3c-5.6,0-11.2,3.3-16.9,3.6 c-4.6,0.3-7.1,3.3-7.1,6.6c0,4.9,5.7,9.5,10.1,9.5c0.3,0,0.4,0,0.4,0s-1.1-1.8-1.4-2.4C439.2,255.4,438.1,253,438.1,253z"></path> <path class="st4" d="M404.7,317.4l-0.3,0.9c-1.4,1.5-2.1,3.4-2.1,5.4c0,1.1,0.2,2.3,0.8,3.4l20.3,43c0.2,0.4,0.6,0.6,0.9,0.6 c0.4,0,0.7-0.2,0.9-0.6l8.2-16.8l-14.6-35.8h-14.1V317.4z"></path> <path class="st15" d="M446.1,271.2c0,0,7.7-7.7,16.9-7.7c13.5,0,21.3,33.4,21.3,40.6c0,6.5-4.9,11.1-9.7,11.1c-0.1,0-0.2,0-0.2,0 h-24.6l-3.1-6.1l-9.2,2.1C437.4,311.1,439.3,284.3,446.1,271.2z"></path> <path class="st4" d="M473.5,317.4c0,0,0.4,2.3,0.4,5.2c0,4.6-0.9,10.5-5.7,10.5c-7.7,0-33.1,0-33.1,0L418.8,371h-23.4 c-0.3,0-0.5-0.3-0.5-0.5c0-0.1,0-0.1,0-0.2l23.9-52.9H473.5z"></path> <path class="st9" d="M446.7,309l-18.5,4.3c-0.3,0.1-0.5,0.3-0.5,0.6c0,0.1,0.1,0.3,0.2,0.4l0.6,0.7h21.3L446.7,309z"></path> <path class="st3" d="M425,315.2h-46.6V288c0-2.3,1.8-4.1,4.1-4.1h38.4c2.3,0,4.1,1.8,4.1,4.1V315.2z"></path> <path class="st2" d="M449.8,308.2l-0.2-0.5c19.8-7.3,18.6-7.2,18.6-8c0-2.6-3.2-10.8-5.9-16.7l0.5-0.2c1.1,2.4,5.9,13.1,5.9,16.9 C468.7,300.8,470.3,300.7,449.8,308.2z"></path> <polygon class="st9" points="397.6,371 396.1,374.3 408.2,374.1 409.3,371 "></polygon> <polygon class="st9" points="433.3,353.3 437.1,355.2 431.5,366.3 428.9,362.2 "></polygon> <path class="st4" d="M437.1,355.2l-5.6,11.1c0,0-0.3,9.2-1.4,9.9l-7.3,1.7c-0.9,0.2-1.5,1-1.5,1.8c0,0.3,0.1,0.7,0.3,1l1,1.7 h11.9L449,362c0.3-0.4,0.4-0.8,0.4-1.3c0-0.9-0.6-1.8-1.5-2.1L437.1,355.2z"></path> <path class="st4" d="M446.8,267.8l-0.7,3.4c0,0,5.3-5,9.6-6.2l-1.1-1.4L446.8,267.8z"></path> <polygon class="st4" points="446.8,261.1 449.4,258.9 446.8,263.8 "></polygon> </g> <path class="st2" d="M438.4,304.9c0-0.1,0-0.1,0-0.2c0-13.9,2.9-22.6,6-31.8l0.6-1.7l0.5,0.2l-0.6,1.7c-3.2,9.5-6,17.8-6,31.6 c0,0.1,0,0.1,0,0.2L438.4,304.9L438.4,304.9z"></path> <rect x="402.6" y="327.7" transform="matrix(0.4061 -0.9138 0.9138 0.4061 -53.6946 573.196)" class="st11" width="23.1" height="0.5"></rect> <polygon class="st11" points="420.8,367.1 420.3,366.9 431.4,341 431.8,341.2 "></polygon> <rect x="431.8" y="332.5" class="st2" width="41.6" height="3"></rect> <rect x="408.9" y="358.4" transform="matrix(0.1211 -0.9926 0.9926 0.1211 24.9818 748.0229)" class="st2" width="52" height="3"></rect> <rect x="468.4" y="334.6" transform="matrix(0.9905 -0.1377 0.1377 0.9905 -45.1323 68.1365)" class="st2" width="3" height="51.3"></rect> </g> <g id="Woman_Key_6_"> <g> <path class="st16" d="M17.7,240.9v30.5c0,11.5,9.5,20.8,21.2,20.8h12.4c11.7,0,21.2-9.3,21.2-20.8v-10.1h32.6 c0.7,1.1,1.9,1.9,3.3,1.9s2.6-0.7,3.3-1.9h71.1c0.8,0,1.5,0.7,1.5,1.5v22.7c0,1.6,1.3,2.9,2.9,2.9h1.1c1.6,0,2.9-1.3,2.9-2.9 v-23.1c0-0.6,0.5-1.1,1.1-1.1h3.1c0.6,0,1.1,0.5,1.1,1.1v19.9c0,3.4,2.8,6.1,6.2,6.1h7.9c3.4,0,6.2-2.7,6.2-6.1v-21h0.6 c2.9,0,5.2-2.3,5.2-5.2c0-2.8-2.3-5.2-5.2-5.2H112c-0.6-1.4-2-2.4-3.6-2.4s-3,1-3.6,2.4H72.5v-10.1c0-11.5-9.5-20.8-21.2-20.8 H38.9C27.2,220.1,17.7,229.4,17.7,240.9z M28.3,240.9c0-5.8,4.7-10.4,10.6-10.4h12.4c5.9,0,10.6,4.7,10.6,10.4v30.5 c0,5.8-4.7,10.4-10.6,10.4H38.9c-5.9,0-10.6-4.7-10.6-10.4L28.3,240.9z"></path> <g> <path class="st4" d="M148,216.2c0,0-0.7,1.1-0.7,2.3c0,1,0.5,2.1,2.2,2.7c3.8,1.3,7.7,6.8,8.1,11.8l-14.8,0.9l-9.1-19.1 L148,216.2z"></path> <path class="st17" d="M111.5,236.1c0-2.8-14.1-7.2-14.1-7.2c-7.9,3.5-8.2,22.1-8.2,22.1h15.5c0,0,1.2-11.2,6-13.9 C111.3,236.9,111.5,236.5,111.5,236.1z"></path> <path class="st9" d="M140.6,210.2c0,0-1.3-1.8-1.3-3.7c0-1.2,0.6-2.6,1.4-2.6c0.6,0,1.2,0.7,1.6,1.7c0.9-1.5,2.6-2.6,4.5-2.6 c2.8,0,5.2,2.2,5.2,5.1c0,0.7-0.1,1.3-0.4,1.9c-0.8,2.2-3.8,7.3-5.2,7.3c-0.2,0-0.5-0.1-0.7-0.3l-1.4-1.4l-1.2,7.3l-4.4-7.2 L140.6,210.2z"></path> <path class="st4" d="M139.4,206.2c0-1.8,1.2-2.2,1.5-2.2c1.1,0,1,3.6,1.3,3.6s1.1-1.5,2.3-1.8c1.1-0.2,1.5-2.1,2.3-2.1 c1.3,0,3.2,4.6,5.3,5l-0.4,1.5c0,0,2,0.6,4.4,0.6c8.4,0,8.2-6.7,8.2-8.6c0-5.5-2.7-10-7.4-10c-4.9,0-5.8,3.5-12,3.5 c-4.9,0-9.8-2.2-14.9-2.2c-2.3,0-4.6,0.5-6.9,1.8c-10.8,6.1-5.7,19.2-9.1,19.2c-1,0-2.1-0.6-3.1-0.6c-0.9,0-1.4,0.7-1.4,1.4 c0,0.9,0.5,1.9,0.5,2.8c0,2.9-15.6,5-15.6,15.5c0,0.1,0,0.2,0,0.3l22.5,10.5l20.9-25.8l1.2-3.2l1.5-4.9 C140.6,210.2,139.4,208,139.4,206.2z"></path> <path class="st9" d="M96.3,261.2c0-0.1,0-0.1,0-0.2l-0.7-2c-0.1-0.2-0.3-0.4-0.5-0.4l-8.5-0.8c0,0,0,0-0.1,0 c-0.3,0-0.6,0.3-0.6,0.6v0.1l0.8,3.1c0.1,0.3,0.3,0.4,0.6,0.4l0,0l8.5-0.3C96.1,261.7,96.3,261.5,96.3,261.2z"></path> <polygon class="st9" points="88.3,369.5 85.7,373.2 79.8,366.1 82,363.7 "></polygon> <path class="st9" d="M192.4,353.3l3.1,4.2l-7.2,4.2c0,0-1.3-2.8-2.1-4.2L192.4,353.3z"></path> <path class="st17" d="M137.5,218.2c0.2,0,0.4,0,0.4,0l26.2,43.1h10.8c0,0-2.4,8.6-11.3,8.6c-13.6,0-22.2-16.8-22.2-16.8 l0.2,10.8h-29.1c0,0,0.4-17,9.8-31.9C130.1,219.1,136,218.2,137.5,218.2z"></path> <path class="st4" d="M112.4,263.9c0,0-3,19.7-4.1,43.9c-0.9,21.2-27.4,54.8-27.4,54.8L92,373.8c0.5,0.5,1.1,0.7,1.7,0.7 c2.5,0,24.7-27.6,30.2-39.6c7.9-17.4,10.5-36,10.5-36l40.7,63.5c0.4,0.6,1.1,1,1.8,1c0.4,0,0.9-0.1,1.2-0.4l14.2-9.8l-50.9-89.4 L112.4,263.9L112.4,263.9z"></path> <polygon class="st4" points="112.4,263.9 141.4,263.9 143.6,267.7 111.8,267.7 "></polygon> <polygon class="st4" points="142.7,226.2 143.2,223.1 138.8,215.8 137.9,218.3 "></polygon> <polygon class="st4" points="144.4,215.8 142.6,213.3 144.1,217.6 "></polygon> <path class="st2" d="M147.8,213c-0.9,0-1.5-0.7-1.5-1.9c0-0.5,0.1-1.1,0.4-1.6c0.5-1.2,1.5-1.9,2.4-1.9c0.8,0,1.5,0.7,1.5,1.8 C150.6,211.2,149.2,213,147.8,213z M147.2,209.8c-0.2,0.5-0.3,1-0.3,1.4c0,1,0.5,1.3,1,1.3c1,0,2.3-1.5,2.3-3c0-1-0.5-1.4-1-1.4 C148.4,208.2,147.6,208.8,147.2,209.8z"></path> <path class="st2" d="M150.6,215.2c-0.2,0-0.5-0.2-0.5-0.7c0-1.3,1.6-4.5,2.5-4.5c0.2,0,0.5,0.2,0.5,0.7 C153.2,212,151.6,215.2,150.6,215.2z M152.7,210.7c0-0.1,0-0.1,0-0.1c-0.6,0.3-2,2.9-2,4c0,0.1,0,0.1,0,0.1 C151.3,214.4,152.7,211.9,152.7,210.7z"></path> <polygon class="st2" points="151.1,212.3 149.8,211.3 150.1,210.9 151.4,211.9 "></polygon> <rect x="144.7" y="204.3" transform="matrix(0.6436 -0.7653 0.7653 0.6436 -106.9683 184.789)" class="st2" width="0.5" height="6"></rect> <path class="st4" d="M79.8,366.1l6,7c0,0,0,0.1,0,0.2c0,1.1,0.1,7.4,3,9.2l8.3,1c0.4,0,0.6,0.4,0.6,0.7c0,0.1,0,0.3-0.1,0.4 l-1.2,1.7H81.5l-10.4-14.9c-0.3-0.4-0.4-0.9-0.4-1.4c0-1.1,0.8-2.2,2-2.5L79.8,366.1z"></path> <path class="st4" d="M188.3,361.6l7.2-4.2c0,0,0.5,0,1.3,0c12.5,0,18.1-2.4,19-2.4s1.8,0.7,2,1.6l0.3,1.3l-24.4,14 c-0.1,0.1-0.3,0.1-0.4,0.1c-0.3,0-0.7-0.2-0.8-0.6L188.3,361.6z"></path> </g> </g> <path class="st11" d="M135.4,296.4l-0.5-0.1c2.2-9,4.4-13.5,4.4-13.5l0.4,0.2C139.8,283,137.6,287.4,135.4,296.4z"></path> <path class="st2" d="M140.6,252.7c-1.4-2.9-4-6.2-4-6.2l0.4-0.3c0,0,2.6,3.4,4.1,6.3L140.6,252.7z"></path> </g> <g id="Chat_18_"> <path class="st6" d="M260.9,215.6h16.2c2.1,0,3.8,1.7,3.8,3.8v10.2c0,2.1-1.7,3.8-3.8,3.8h-2.4v0.1c0,0.9,0.2,4.2,2.6,5.4 c0,0-4.9-1.7-6-5.5h-10.5c-2.1,0-3.8-1.7-3.8-3.8v-10.2C257.1,217.3,258.8,215.6,260.9,215.6z"></path> <circle class="st18" cx="275.8" cy="224.8" r="2"></circle> <circle class="st18" cx="269" cy="224.8" r="2"></circle> <circle class="st18" cx="262.3" cy="224.8" r="2"></circle> </g> </g> </svg> 